# xmcd
#
# Track frame offsets: 
#        150
#        12160
#        36674
#        55888
#        77879
#        90344
#        103196
#        123563
#        147141
#        159971
#        187526
#        207358
#        241232
#        251103
#
# Disc length: 3531 seconds
#
# Revision: 4
# Processed by: cddbd v1.5.2PL0 Copyright (c) Steve Scherf et al.
# Submitted via: ExactAudioCopyFreeDBPlugin 1.0
#
DISCID=b50dc90e
DTITLE=Various Artist - Stony Plain's Christmas Blues
DYEAR=2000
DGENRE=Holiday
TTITLE0=Duke Robillard - Duke's Christmas
TTITLE1=Billy Boy Arnold - Christmas Time, Part 1 (ft The Duke Robilla
TTITLE1=rd Band)
TTITLE2=Asleep at the Wheel - Switchin' in the Kitchen (ft The Roomful
TTITLE2=of Blues Horns)
TTITLE3=Rosco Gordon - Merry Christmas Everyone (ft The Duke Robillard
TTITLE3=Band)
TTITLE4=Big Dave McLean - Santa Come Down
TTITLE5=Maria Muldaur - No Money, No Honey (ft The Duke Robillard Band
TTITLE5=)
TTITLE6=Jay McShann - Hootie's K.C. Christmas Prayer (ft The Duke Robi
TTITLE6=llard Band)
TTITLE7=Rockin' Highliners - What Do You Really Want for Christmas?
TTITLE8=Long John Baldry - On a Christmas Day
TTITLE9=Sonny Rhodes - Christmas 9-1-1
TTITLE10=Kristi Johnston - Is This Gonna Last?
TTITLE11=Jimmy Witherspoon - Christmas Blues (ft The Duke Robillard Ba
TTITLE11=nd)
TTITLE12=Paul James - Crazy Little Kitten for Christmas
TTITLE13=David Wilcox - Mama
EXTD=
EXTT0=
EXTT1=
EXTT2=
EXTT3=
EXTT4=
EXTT5=
EXTT6=
EXTT7=
EXTT8=
EXTT9=
EXTT10=
EXTT11=
EXTT12=
EXTT13=
PLAYORDER=
